<?xml version="1.0" encoding="utf-8"?>
<svg version="1.1" id="Layer_1" xmlns="http://www.w3.org/2000/svg" xmlns:xlink="http://www.w3.org/1999/xlink" x="0px" y="0px"
	 width="16px" height="16px" viewBox="0 0 16 16" style="enable-background:new 0 0 16 16;" xml:space="preserve">
<path style="fill:#10AA50;" d="M11.3,6.5C10.5,3,8.8,2,8.4,1.4C8.2,1,7.9,0.5,7.9,0.5c0,0.3-0.1,0.5-0.3,0.7c-0.5,0.5-2.8,2.3-3,6.3
	c-0.2,3.7,2.7,6,3.1,6.2c0.3,0.1,0.7,0,0.8-0.1C10,12.6,11.9,10.1,11.3,6.5"/>
<path style="fill:#B8C4C2;" d="M8.1,11.8c-0.1,0.9-0.1,1.5-0.3,2c0,0,0.1,0.9,0.2,1.8h0.3c0.1-0.7,0.2-1.3,0.3-1.9
	C8.2,13.4,8.1,12.6,8.1,11.8z"/>
<path style="fill:#12924F;" d="M8.6,13.6L8.6,13.6c-0.4-0.2-0.5-1-0.5-1.8c0.1-1.3,0.1-2.6,0.1-4c0-0.7,0-6.4-0.2-7.3
	C8,0.7,8.2,1.1,8.4,1.4C8.8,2,10.5,3,11.3,6.5C11.9,10.1,10,12.6,8.6,13.6z"/>
</svg>
