<?xml version="1.0" encoding="utf-8"?>
<!-- Generator: Adobe Illustrator 25.0.1, SVG Export Plug-In . SVG Version: 6.00 Build 0)  -->
<svg version="1.0" id="Layer_1" xmlns="http://www.w3.org/2000/svg" xmlns:xlink="http://www.w3.org/1999/xlink" x="0px" y="0px"
	 width="150px" height="150px" viewBox="0 0 150 150" enable-background="new 0 0 150 150" xml:space="preserve">
<path fill-rule="evenodd" clip-rule="evenodd" fill="#389FD6" d="M16.3,45.7c13,7.5,34.4,12.4,58.7,12.4s45.7-4.9,58.7-12.4
	c0,7.6,0,12.1,0,13.5c0,9.7-26.3,17.5-58.7,17.5s-58.7-7.8-58.7-17.5C16.3,58,16.3,53.5,16.3,45.7z M133.7,76c0,8.1,0,12.9,0,14.4
	c0,9.2-26.3,16.6-58.7,16.6s-58.7-7.4-58.7-16.6c0-1.3,0-6.1,0-14.4c13,7.5,34.4,12.4,58.7,12.4S120.7,83.5,133.7,76z M133.7,106.3
	V121c0,9.7-26.3,17.5-58.7,17.5s-58.7-7.8-58.7-17.5v-14.7c13,7.5,34.4,12.4,58.7,12.4S120.7,113.8,133.7,106.3z M75,46.5
	c-32.4,0-58.7-7.8-58.7-17.5S42.6,11.5,75,11.5s58.7,7.8,58.7,17.5S107.4,46.5,75,46.5z"/>
</svg>
