<?xml version="1.0" encoding="utf-8"?>
<!-- Generator: Adobe Illustrator 25.0.1, SVG Export Plug-In . SVG Version: 6.00 Build 0)  -->
<svg version="1.0" id="Layer_1" xmlns="http://www.w3.org/2000/svg" xmlns:xlink="http://www.w3.org/1999/xlink" x="0px" y="0px"
	 width="16px" height="16px" viewBox="0 0 16 16" enable-background="new 0 0 16 16" xml:space="preserve">
<g>
	<polygon fill-rule="evenodd" clip-rule="evenodd" fill="#F4AF3D" fill-opacity="0.7" points="1,16 16,16 16,9 1,9 	"/>
	<polygon fill-rule="evenodd" clip-rule="evenodd" fill="#9AA7B0" fill-opacity="0.8" points="7,1 3,5 7,5 	"/>
	<polygon fill-rule="evenodd" clip-rule="evenodd" fill="#9AA7B0" fill-opacity="0.8" points="8,1 8,6 3,6 3,8 13,8 13,1 	"/>
	<path fill-rule="evenodd" clip-rule="evenodd" fill="#231F20" fill-opacity="0.7" d="M3,11.5C3,11.1,3.3,11,3.8,11c0,0,0.4,0,1.2,0
		v-1c-0.7,0-1.1,0-1.1,0C2.8,10,2,10.5,2,11.4c0,0.9,0.4,1.2,1.5,1.5c0.8,0.2,1,0.3,1,0.6c0,0.3-0.4,0.5-1,0.5c0,0-0.4,0-1.2,0v1
		c0.8,0,1.2,0,1.2,0c2,0,2-1,2-1.5c0-0.6-0.5-1.1-1.3-1.4S3,11.9,3,11.5z"/>
	<path fill-rule="evenodd" clip-rule="evenodd" fill="#231F20" fill-opacity="0.7" d="M11,14.4l-0.5,0.6l-0.6-0.5
		C9.5,14.8,9,15,8.4,15c-1.5,0-2.5-1.1-2.5-2.5c0-1.4,1-2.5,2.5-2.5s2.5,1.1,2.5,2.5c0,0.6-0.2,1.1-0.5,1.5L11,14.4z M8.4,14.1
		c0.3,0,0.6-0.1,0.8-0.2l-0.8-0.7L9,12.6l0.8,0.7c0.1-0.2,0.2-0.5,0.2-0.8v0c0-0.9-0.6-1.6-1.5-1.6s-1.5,0.7-1.5,1.6v0
		C6.9,13.4,7.5,14.1,8.4,14.1z"/>
	<polygon fill-rule="evenodd" clip-rule="evenodd" fill="#231F20" fill-opacity="0.7" points="11.7,10 12.7,10 12.7,14 15.2,14 
		15.2,15 11.7,15 	"/>
</g>
</svg>
